<?xml version="1.0" encoding="utf-8"?>
<!-- Generator: Adobe Illustrator 15.0.0, SVG Export Plug-In . SVG Version: 6.00 Build 0)  -->
<!DOCTYPE svg PUBLIC "-//W3C//DTD SVG 1.1//EN" "http://www.w3.org/Graphics/SVG/1.1/DTD/svg11.dtd">
<svg version="1.1" id="レイヤー_1" xmlns="http://www.w3.org/2000/svg" xmlns:xlink="http://www.w3.org/1999/xlink" x="0px"
	 y="0px" width="538.583px" height="538.583px" viewBox="0 0 538.583 538.583" enable-background="new 0 0 538.583 538.583"
	 xml:space="preserve">
<path fill-rule="evenodd" clip-rule="evenodd" fill="#184EE8" d="M270.291,78.341c16.82,0,30.45,13.63,30.45,30.45
	s-13.63,30.45-30.45,30.45s-30.45-13.63-30.45-30.45S253.471,78.341,270.291,78.341z M270.291,398.341
	c16.82,0,30.45,13.63,30.45,30.45s-13.63,30.45-30.45,30.45s-30.45-13.63-30.45-30.45S253.471,398.341,270.291,398.341z
	 M139.291,237.341c16.82,0,30.45,13.63,30.45,30.45s-13.63,30.45-30.45,30.45s-30.45-13.63-30.45-30.45
	S122.471,237.341,139.291,237.341z M405.291,237.341c16.82,0,30.45,13.63,30.45,30.45s-13.63,30.45-30.45,30.45
	s-30.45-13.63-30.45-30.45S388.471,237.341,405.291,237.341z M19.291,188.792c0,31.49,23.63,64.05,56,79.96
	c0.52,34.9,28.97,63.04,64,63.04c31.6,0,57.85-22.89,63.06-53h139.88c5.21,30.11,31.46,53,63.06,53c26.4,0,49.06-15.98,58.85-38.8
	c16.85,12.94,27.15,31.24,27.15,51.52c0,21.67-11.45,41.08-30.14,54.1c-13.46,6.91-29.61,10.9-47.32,10.9h-82.82
	c-8.48-25.41-32.46-43.72-60.72-43.72c-27.52,0-50.99,17.37-60.03,41.75h-81.64v-43.75l-84.33,59.5l84.33,59.5v-43.75h78.33
	c4.49,30.96,31.13,54.75,63.34,54.75c32.39,0,59.16-24.06,63.41-55.28h87.13c52.17,0,99.46-43.82,99.46-88v-12
	c0-29.96-21.4-60.9-51.36-77.53c-3.4-32.15-30.59-57.19-63.64-57.19c-27.62,0-51.15,17.49-60.12,42h-145.76
	c-8.97-24.51-32.5-42-60.12-42c-24.97,0-46.6,14.3-57.15,35.15c-20.78-12.98-33.85-33.31-33.85-56.15
	c0-21.67,11.45-41.08,30.14-54.1c13.46-6.91,29.61-10.9,47.32-10.9h81.03c3.94,31.57,30.87,56,63.51,56
	c30.8,0,56.52-21.76,62.63-50.75h79.04v43.75l84.33-59.5l-84.33-59.5v43.75h-80.31c-7.86-26.46-32.35-45.75-61.36-45.75
	c-27.99,0-51.78,17.97-60.48,43h-91.06c-52.17,0-99.46,43.82-99.46,88V188.792z"/>
</svg>
